<svg width="900" height="599" xmlns="http://www.w3.org/2000/svg"><path fill="none" id="canvas_background" d="M-1-1h902v601H-1z"/><g id="svg_1" fill="#fff" transform="matrix(.1 0 0 -.1 0 1200)"><path id="svg_2" d="M8824 11961.078c-26-22-27-25-14-55 12-29 11-35-12-67-58-80-244-211-578-405-236-136-440-267-1010-644-900-596-1546-1000-1647-1030-21-6-23-3-23 29 0 34 6 41 85 99 46 34 196 132 332 217s340 213 453 286c113 72 302 191 420 264 118 74 307 195 420 270 244 162 433 282 630 400 146 87 196 119 525 335 99 65 219 141 268 168 79 46 104 67 77 67-13 0-266-158-845-527-242-154-516-328-610-386-281-174-594-371-1113-703-472-300-496-314-542-314-48 0-48 0-89-63-39-60-41-68-41-138 0-86-9-108-32-82-29 34-38 62-38 122 0 34-3 61-7 61s-74-32-155-72c-117-56-151-69-161-59-8 8-9 14-1 19 6 4 80 52 165 107l154 100-47 3c-46 3-50 6-115 83l-68 79h-50c-33 0-60 7-80 20-25 16-47 20-126 20h-96l-6 45c-12 86-82 156-197 196-89 31-361 39-496 14-101-18-259-59-314-81l-37-15-5-90c-3-49-8-93-12-96-3-4-50 6-104 22-142 43-220 41-338-7l-91-37-159 6c-151 5-162 4-230-19-135-47-269-157-364-299-119-179-210-487-210-715 0-82 3-96 21-113 34-32 105-44 289-50 156-6 171-8 135-18-49-15-285-30-580-38-575-15-894-50-1004-110l-26-14 25-1c45-1 70-12 70-31 0-11-6-20-12-20-7-1-29-3-48-5-25-3-39 1-47 13-12 15-14 15-33-2-11-10-20-28-20-40 0-44-85-137-215-235-38-30-108-88-155-130-231-206-296-253-385-273-81-19-234-92-285-136l-35-30 323-1c307 0 322-1 322-19 0-16-12-19-117-24-209-9-348-63-424-162-42-54-59-105-67-192l-5-63h42c34 0 41-3 41-20s-7-20-40-20H20v-140h51c43 0 50-3 47-17-2-13-15-19-46-21-23-2-42-5-42-8 0-16 34-152 42-166 5-10 25-26 45-36l36-19-23-16c-22-15-22-16 48-51 63-32 82-50 82-77 0-5-7-9-15-9s-15-4-15-9 75-78 166-162l166-154 101-13c56-7 212-35 347-62 285-58 946-175 1235-219 432-65 764-93 1140-94 337-2 469 16 740 98 227 69 407 187 516 339 32 45 66 92 76 105l19 23 139-17c77-9 210-27 295-41 358-57 566-83 885-111 286-25 931-25 1135 0 249 30 464 80 608 141 224 94 415 286 482 486 30 90 35 183 16 335-23 189-32 168 87 201l102 29-365 3-366 2-71 198c-39 108-74 205-78 215-6 14-2 17 27 17 52 0 142-34 252-96 116-65 239-108 349-123 81-11 207-15 207-6 0 3-34 79-76 170-75 162-77 165-108 165-17 0-150-9-296-20-350-26-396-26-403 0-5 18-13 20-109 20-56 0-202-7-323-15s-226-15-234-15 19-35 60-78c41-42 110-116 154-162 44-47 148-157 231-245 165-175 214-229 214-239 0-3-33-6-72-6-81 0-336-16-470-30-127-13-140-7-250 113-102 111-221 250-312 366-70 87-206 287-206 301 0 6 29 10 65 10 57 0 68 3 97 28 39 35 48 20-140 226l-143 157 17 28c9 15 48 70 86 122l69 94-25 22c-55 47-163 52-429 17-65-8-123-14-128-12-15 5 16 42 74 87 45 34 70 45 133 58 100 20 211 70 246 112 66 78 62 194-13 368l-20 47-60-102c-33-56-63-102-67-102-7 0-93 343-92 371 0 26 122 113 425 304 162 102 171 108 450 287 116 74 262 168 325 208 113 73 675 438 922 601 71 46 192 124 270 174 308 193 638 415 654 441 23 34 22 109-1 155-41 80-82 98-131 55zm-4100-1710c10-73 43-136 86-161 29-17 52-20 140-19 58 0 137 4 175 8l70 7 65-60c35-33 62-61 60-64-3-2-75-9-160-15-369-28-597-3-690 75-40 34-38 43 13 43h42l-3 120-4 120h200l6-54zm-479-215c246-45 401-111 506-214 114-111 194-238 218-346l10-44-182 6c-100 4-198 9-217 13l-35 6 3 127c5 158-10 201-97 284-64 61-124 95-221 125-63 19-190 40-180 29 3-3 42-19 87-37 106-40 188-96 258-173 144-158 159-334 40-466-21-23-41-41-46-41s-9 28-9 63c-1 191-67 311-222 405-101 60-156 73-348 82-152 7-185 12-250 35-73 26-82 27-277 25l-201-1-7 31c-4 17-5 34-2 37 5 4 728 42 825 43 20 0 31 4 27 10-3 6-17 10-31 10-13 0-24 5-24 11 0 18 242 4 375-20zm-862-386l48-145h160c97 0 158-4 154-9-3-5-57-46-120-91s-117-86-121-91c-3-5 15-73 41-150s45-143 42-145c-2-2-61 37-131 87l-126 90-126-91c-70-50-128-89-130-87s16 64 41 137c25 74 45 141 45 150-1 8-40 42-87 75-48 33-105 74-127 90l-41 30 164 5 164 5 45 143c25 78 48 142 52 142 3 0 27-65 53-145zm-1587-884c-9-16-27-43-42-60-25-30-29-31-100-31-82 0-90 7-52 55 30 38 93 65 156 65h53l-15-29zm-216-6c0-26-34-63-61-69-50-10-247-7-254 4s12 51 29 62c13 9 286 11 286 3zm2827-36c207-84 577-161 833-174 163-9 191-21 245-111 45-74 154-183 215-214 48-25 151-50 205-50 44 0-15 65 538-588 86-103 157-190 157-194 0-5-12-8-27-8-16 0-336-25-713-55s-702-55-724-55h-39l6 37c9 52 35 84 93 113 27 14 51 26 53 28 7 4-36 89-103 202-35 58-82 140-106 184-23 43-56 93-71 111-16 18-29 44-29 59v26h200v140h51c54 0 83 11 92 34 11 27-21 46-77 46-63 0-66 3-164 145-85 124-118 149-185 140-73-9-158-44-193-79-19-19-38-53-47-87-15-50-41-89-61-89-4 0-5 8-2 18 2 9 7 52 11 95l7 77h-282l10 26c24 62-4 67-41 8-43-70-4-176 117-319 67-79 104-132 104-150 0-3-169-5-375-5h-375v345c0 190 1 346 3 346 3 2 473 25 544 27 37 2 73-7 130-29zm536-317c-18-39-22-98-10-144l7-28h140c133 0 140-1 140-20s-7-20-175-20h-175l-17 35c-9 19-20 35-24 35s-19-14-33-32-27-30-29-28c-2 3-7 39-10 80l-6 75 97 46c53 25 100 44 104 42s0-21-9-41zm-56-444c19-24 245-449 242-453-3-2-72-8-154-14-83-6-169-13-192-16l-43-5v98c0 176-32 198-366 246-179 25-266 52-285 88-6 11-9 22-6 24 2 2 127 11 278 19s301 16 334 18c145 8 183 7 192-5zm-3649-465c-144-294-102-708 88-883 50-45 139-89 182-90 30-1-30-29-62-30-168-2-310 214-347 530-26 224 27 461 118 529 56 42 62 27 21-56zm500-60c-118-243-112-601 14-798 56-88 178-174 248-175 24-1 24-1 6-15-27-21-103-18-152 4-198 90-317 530-233 860 11 41 31 94 45 118 24 41 74 83 99 83 6 0-6-35-27-77zm792 29c0-4-6-17-14-28-28-39-67-151-86-246-52-251 1-510 132-653 54-59 81-77 162-105l51-18-30-12c-34-13-93-7-142 17-46 22-123 108-156 177-136 278-123 726 23 850 30 25 60 34 60 18zm780-36c0-2-16-37-35-77-59-125-79-222-79-389 0-109 4-162 18-215 51-197 171-334 315-361l34-7-24-13c-80-44-206 18-285 141-38 60-86 191-105 290-20 102-18 322 4 415 21 87 59 162 100 196 25 21 57 32 57 20z"/><path id="svg_3" d="M6601 8813.078c-44-12-84-39-74-49 14-13 285-159 296-159 13 0 0 95-18 129-18 37-48 61-92 77-44 15-65 16-112 2z"/></g></svg>