<svg width="25" height="22" xmlns="http://www.w3.org/2000/svg">
 <!-- Created with SVG Editor - http://github.com/mzalive/SVG Editor/ -->

 <g>
  <title>background</title>
  <rect fill="#666666" id="canvas_background" height="24" width="27" y="-1" x="-1"/>
  <g display="none" overflow="visible" y="0" x="0" height="100%" width="100%" id="canvasGrid">
   <rect fill="url(#gridpattern)" stroke-width="0" y="0" x="0" height="100%" width="100%"/>
  </g>
 </g>
 <g>
  <title>Layer 1</title>
  <path id="svg_1" d="m1.353929,7.980788l8.403311,0l2.596688,-7.639344l2.596689,7.639344l8.403309,0l-6.798409,4.72132l2.596822,7.639344l-6.798412,-4.721449l-6.79841,4.721449l2.596823,-7.639344l-6.798411,-4.72132z" stroke-width="1.5" fill="#9b0101"/>
  <metadata transform="matrix(0.021947874126774458,0,0,0.021947874126774458,0,0) ">Created by potrace 1.16, written by Peter Selinger 2001-2019</metadata>
  <g stroke="null" id="svg_15">
   <g stroke="null" transform="matrix(0.08067364806360114,0,0,0.0801841330677537,-802.4510217960051,-543.0791545440914) " id="svg_13">
    <title stroke="null" transform="translate(12.395621299743652,-12.471295356750488) translate(12.395621299743652,-24.942590713500977) translate(-86.76934814453125,39.28703689575195) translate(-780.9241333007812,196.4351806640625) translate(12763.3740234375,0) translate(0,8813) ">background</title>
    <rect stroke="null" x="11919.471785" y="9010.308331" width="902" height="601" id="svg_11" fill="none"/>
   </g>
   <g stroke="null" transform="matrix(0.08067364806360114,0,0,0.0801841330677537,-802.4510217960051,-543.0791545440914) " id="svg_14">
    <title stroke="null" transform="translate(12.395621299743652,-12.471295356750488) translate(12.395621299743652,-24.942590713500977) translate(-86.76934814453125,39.28703689575195) translate(-780.9241333007812,196.4351806640625) translate(12763.3740234375,0) translate(0,8813) ">Layer 1</title>
    <g stroke="null" transform="translate(0,1200) scale(0.10000000149011612,-0.10000000149011612) " fill="#000000" id="svg_8">
     <path stroke="null" d="m128028.719925,-78152.005183c-26,-22 -27,-25 -14,-55c12,-29 11,-35 -12,-67c-58,-80 -244,-211 -578,-405c-236,-136 -440,-267 -1010,-644c-900,-596 -1546,-1000 -1647,-1030c-21,-6 -23,-3 -23,29c0,34 6,41 85,99c46,34 196,132 332,217c136,85 340,213 453,286c113,72 302,191 420,264c118,74 307,195 420,270c244,162 433,282 630,400c146,87 196,119 525,335c99,65 219,141 268,168c79,46 104,67 77,67c-13,0 -266,-158 -845,-527c-242,-154 -516,-328 -610,-386c-281,-174 -594,-371 -1113,-703c-472,-300 -496,-314 -542,-314c-48,0 -48,0 -89,-63c-39,-60 -41,-68 -41,-138c0,-86 -9,-108 -32,-82c-29,34 -38,62 -38,122c0,34 -3,61 -7,61c-4,0 -74,-32 -155,-72c-117,-56 -151,-69 -161,-59c-8,8 -9,14 -1,19c6,4 80,52 165,107l154,100l-47,3c-46,3 -50,6 -115,83l-68,79l-50,0c-33,0 -60,7 -80,20c-25,16 -47,20 -126,20l-96,0l-6,45c-12,86 -82,156 -197,196c-89,31 -361,39 -496,14c-101,-18 -259,-59 -314,-81l-37,-15l-5,-90c-3,-49 -8,-93 -12,-96c-3,-4 -50,6 -104,22c-142,43 -220,41 -338,-7l-91,-37l-159,6c-151,5 -162,4 -230,-19c-135,-47 -269,-157 -364,-299c-119,-179 -210,-487 -210,-715c0,-82 3,-96 21,-113c34,-32 105,-44 289,-50c156,-6 171,-8 135,-18c-49,-15 -285,-30 -580,-38c-575,-15 -894,-50 -1004,-110l-26,-14l25,-1c45,-1 70,-12 70,-31c0,-11 -6,-20 -12,-20c-7,-1 -29,-3 -48,-5c-25,-3 -39,1 -47,13c-12,15 -14,15 -33,-2c-11,-10 -20,-28 -20,-40c0,-44 -85,-137 -215,-235c-38,-30 -108,-88 -155,-130c-231,-206 -296,-253 -385,-273c-81,-19 -234,-92 -285,-136l-35,-30l323,-1c307,0 322,-1 322,-19c0,-16 -12,-19 -117,-24c-209,-9 -348,-63 -424,-162c-42,-54 -59,-105 -67,-192l-5,-63l42,0c34,0 41,-3 41,-20c0,-17 -7,-20 -40,-20l-40,0l0,-70l0,-70l51,0c43,0 50,-3 47,-17c-2,-13 -15,-19 -46,-21c-23,-2 -42,-5 -42,-8c0,-16 34,-152 42,-166c5,-10 25,-26 45,-36l36,-19l-23,-16c-22,-15 -22,-16 48,-51c63,-32 82,-50 82,-77c0,-5 -7,-9 -15,-9c-8,0 -15,-4 -15,-9c0,-5 75,-78 166,-162l166,-154l101,-13c56,-7 212,-35 347,-62c285,-58 946,-175 1235,-219c432,-65 764,-93 1140,-94c337,-2 469,16 740,98c227,69 407,187 516,339c32,45 66,92 76,105l19,23l139,-17c77,-9 210,-27 295,-41c358,-57 566,-83 885,-111c286,-25 931,-25 1135,0c249,30 464,80 608,141c224,94 415,286 482,486c30,90 35,183 16,335c-23,189 -32,168 87,201l102,29l-365,3l-366,2l-71,198c-39,108 -74,205 -78,215c-6,14 -2,17 27,17c52,0 142,-34 252,-96c116,-65 239,-108 349,-123c81,-11 207,-15 207,-6c0,3 -34,79 -76,170c-75,162 -77,165 -108,165c-17,0 -150,-9 -296,-20c-350,-26 -396,-26 -403,0c-5,18 -13,20 -109,20c-56,0 -202,-7 -323,-15c-121,-8 -226,-15 -234,-15c-8,0 19,-35 60,-78c41,-42 110,-116 154,-162c44,-47 148,-157 231,-245c165,-175 214,-229 214,-239c0,-3 -33,-6 -72,-6c-81,0 -336,-16 -470,-30c-127,-13 -140,-7 -250,113c-102,111 -221,250 -312,366c-70,87 -206,287 -206,301c0,6 29,10 65,10c57,0 68,3 97,28c39,35 48,20 -140,226l-143,157l17,28c9,15 48,70 86,122l69,94l-25,22c-55,47 -163,52 -429,17c-65,-8 -123,-14 -128,-12c-15,5 16,42 74,87c45,34 70,45 133,58c100,20 211,70 246,112c66,78 62,194 -13,368l-20,47l-60,-102c-33,-56 -63,-102 -67,-102c-7,0 -93,343 -92,371c0,26 122,113 425,304c162,102 171,108 450,287c116,74 262,168 325,208c113,73 675,438 922,601c71,46 192,124 270,174c308,193 638,415 654,441c23,34 22,109 -1,155c-41,80 -82,98 -131,55zm-4100,-1710c10,-73 43,-136 86,-161c29,-17 52,-20 140,-19c58,0 137,4 175,8l70,7l65,-60c35,-33 62,-61 60,-64c-3,-2 -75,-9 -160,-15c-369,-28 -597,-3 -690,75c-40,34 -38,43 13,43l42,0l-3,120l-4,120l100,0l100,0l6,-54zm-479,-215c246,-45 401,-111 506,-214c114,-111 194,-238 218,-346l10,-44l-182,6c-100,4 -198,9 -217,13l-35,6l3,127c5,158 -10,201 -97,284c-64,61 -124,95 -221,125c-63,19 -190,40 -180,29c3,-3 42,-19 87,-37c106,-40 188,-96 258,-173c144,-158 159,-334 40,-466c-21,-23 -41,-41 -46,-41c-5,0 -9,28 -9,63c-1,191 -67,311 -222,405c-101,60 -156,73 -348,82c-152,7 -185,12 -250,35c-73,26 -82,27 -277,25l-201,-1l-7,31c-4,17 -5,34 -2,37c5,4 728,42 825,43c20,0 31,4 27,10c-3,6 -17,10 -31,10c-13,0 -24,5 -24,11c0,18 242,4 375,-20zm-862,-386l48,-145l160,0c97,0 158,-4 154,-9c-3,-5 -57,-46 -120,-91c-63,-45 -117,-86 -121,-91c-3,-5 15,-73 41,-150c26,-77 45,-143 42,-145c-2,-2 -61,37 -131,87l-126,90l-126,-91c-70,-50 -128,-89 -130,-87c-2,2 16,64 41,137c25,74 45,141 45,150c-1,8 -40,42 -87,75c-48,33 -105,74 -127,90l-41,30l164,5l164,5l45,143c25,78 48,142 52,142c3,0 27,-65 53,-145zm-1587,-884c-9,-16 -27,-43 -42,-60c-25,-30 -29,-31 -100,-31c-82,0 -90,7 -52,55c30,38 93,65 156,65l53,0l-15,-29zm-216,-6c0,-26 -34,-63 -61,-69c-50,-10 -247,-7 -254,4c-7,11 12,51 29,62c13,9 286,11 286,3zm2827,-36c207,-84 577,-161 833,-174c163,-9 191,-21 245,-111c45,-74 154,-183 215,-214c48,-25 151,-50 205,-50c44,0 -15,65 538,-588c86,-103 157,-190 157,-194c0,-5 -12,-8 -27,-8c-16,0 -336,-25 -713,-55c-377,-30 -702,-55 -724,-55l-39,0l6,37c9,52 35,84 93,113c27,14 51,26 53,28c7,4 -36,89 -103,202c-35,58 -82,140 -106,184c-23,43 -56,93 -71,111c-16,18 -29,44 -29,59l0,26l100,0l100,0l0,70l0,70l51,0c54,0 83,11 92,34c11,27 -21,46 -77,46c-63,0 -66,3 -164,145c-85,124 -118,149 -185,140c-73,-9 -158,-44 -193,-79c-19,-19 -38,-53 -47,-87c-15,-50 -41,-89 -61,-89c-4,0 -5,8 -2,18c2,9 7,52 11,95l7,77l-141,0l-141,0l10,26c24,62 -4,67 -41,8c-43,-70 -4,-176 117,-319c67,-79 104,-132 104,-150c0,-3 -169,-5 -375,-5l-375,0l0,345c0,190 1,346 3,346c3,2 473,25 544,27c37,2 73,-7 130,-29zm536,-317c-18,-39 -22,-98 -10,-144l7,-28l140,0c133,0 140,-1 140,-20c0,-19 -7,-20 -175,-20l-175,0l-17,35c-9,19 -20,35 -24,35c-4,0 -19,-14 -33,-32c-14,-18 -27,-30 -29,-28c-2,3 -7,39 -10,80l-6,75l97,46c53,25 100,44 104,42c4,-2 0,-21 -9,-41zm-56,-444c19,-24 245,-449 242,-453c-3,-2 -72,-8 -154,-14c-83,-6 -169,-13 -192,-16l-43,-5l0,98c0,176 -32,198 -366,246c-179,25 -266,52 -285,88c-6,11 -9,22 -6,24c2,2 127,11 278,19c151,8 301,16 334,18c145,8 183,7 192,-5zm-3649,-465c-144,-294 -102,-708 88,-883c50,-45 139,-89 182,-90c30,-1 -30,-29 -62,-30c-168,-2 -310,214 -347,530c-26,224 27,461 118,529c56,42 62,27 21,-56zm500,-60c-118,-243 -112,-601 14,-798c56,-88 178,-174 248,-175c24,-1 24,-1 6,-15c-27,-21 -103,-18 -152,4c-198,90 -317,530 -233,860c11,41 31,94 45,118c24,41 74,83 99,83c6,0 -6,-35 -27,-77zm792,29c0,-4 -6,-17 -14,-28c-28,-39 -67,-151 -86,-246c-52,-251 1,-510 132,-653c54,-59 81,-77 162,-105l51,-18l-30,-12c-34,-13 -93,-7 -142,17c-46,22 -123,108 -156,177c-136,278 -123,726 23,850c30,25 60,34 60,18zm780,-36c0,-2 -16,-37 -35,-77c-59,-125 -79,-222 -79,-389c0,-109 4,-162 18,-215c51,-197 171,-334 315,-361l34,-7l-24,-13c-80,-44 -206,18 -285,141c-38,60 -86,191 -105,290c-20,102 -18,322 4,415c21,87 59,162 100,196c25,21 57,32 57,20z" id="svg_10" fill="white"/>
     <path stroke="null" d="m125805.719925,-81300.005183c-44,-12 -84,-39 -74,-49c14,-13 285,-159 296,-159c13,0 0,95 -18,129c-18,37 -48,61 -92,77c-44,15 -65,16 -112,2z" id="svg_9" fill="white"/>
    </g>
   </g>
  </g>
  <text stroke="null" transform="matrix(1.095880150794983,0,0,1,-22.811985252425075,0) " xml:space="preserve" text-anchor="start" font-family="Helvetica, Arial, sans-serif" font-size="24" id="svg_16" y="205.5" x="233.366029" stroke-width="0" fill="#930216">ФАКТ</text>
  <text stroke="null" transform="matrix(0.5708471664481962,0,0,0.6653992533683776,111.32226573791726,40.56938781030476) " xml:space="preserve" text-anchor="start" font-family="Helvetica, Arial, sans-serif" font-size="24" id="svg_17" y="274.511428" x="212.16253" stroke-width="0" fill="#a50000">ИСТОРИИ</text>
  <path id="svg_18" d="m132.35393,204.98079l8.40331,0l2.59669,-7.63935l2.59669,7.63935l8.40331,0l-6.79841,4.72132l2.59682,7.63934l-6.79841,-4.72145l-6.79841,4.72145l2.59682,-7.63934l-6.79841,-4.72132z" stroke-width="1.5" fill="#9b0101"/>
 </g>
</svg>